# xmcd
#
# Track frame offsets: 
#        150
#        12533
#        23582
#        35468
#        47000
#        58446
#        71187
#        84442
#        97773
#        111194
#        123323
#        137472
#        152376
#        167208
#        181281
#        194820
#        209322
#        224014
#        238788
#        250093
#
# Disc length: 3490 seconds
#
# Revision: 3
# Processed by: cddbd v1.5.2PL0 Copyright (c) Steve Scherf et al.
# Submitted via: ExactAudioCopy v0.99pb5
#
DISCID=1e0da014
DTITLE=Louis Armstrong - Rockin' Chair
DYEAR=1900
DGENRE=Swing
TTITLE0=When The Saints Go Marching In
TTITLE1=On The Sentimental Side
TTITLE2=It's Wonderful
TTITLE3=Something Tells Me
TTITLE4=Love Walked In
TTITLE5=Naturally
TTITLE6=I've Got A Pocketful Of Dreams
TTITLE7=I Can't Give You Anything But Love
TTITLE8=Ain't Misbehavin'
TTITLE9=Jeepers Creepers
TTITLE10=What Is This Thing Called Swing?
TTITLE11=Rockin' Chair
TTITLE12=Lazybones
TTITLE13=Hear Me Talkin' To Ya
TTITLE14=Save It, Pretty Mama
TTITLE15=West End Blues
TTITLE16=Savoy Blues
TTITLE17=Confessin'
TTITLE18=Our Monday Date
TTITLE19=If It's Good (Then I Want It)
EXTD=
EXTT0=
EXTT1=
EXTT2=
EXTT3=
EXTT4=
EXTT5=
EXTT6=
EXTT7=
EXTT8=
EXTT9=
EXTT10=
EXTT11=
EXTT12=
EXTT13=
EXTT14=
EXTT15=
EXTT16=
EXTT17=
EXTT18=
EXTT19=
PLAYORDER=
